<?xml version="1.0" encoding="utf-8"?>
<!-- Generator: Adobe Illustrator 19.0.0, SVG Export Plug-In . SVG Version: 6.00 Build 0)  -->
<svg version="1.1" id="Layer_1" xmlns="http://www.w3.org/2000/svg" xmlns:xlink="http://www.w3.org/1999/xlink" x="0px" y="0px"
	 width="20px" height="23px" viewBox="0 0 20 23" enable-background="new 0 0 20 23" xml:space="preserve">
<path fill="#FFFFFF" d="M20,12.4c0-1.5-0.1-2.7-1-3.4V8c0-4.5-4.3-8-9-8C5.3,0,2,3.5,2,8v1c-0.9,0.7-2,1.5-2,3c0,2.3,1.4,4,3,4h2V9
	H3c0-3.8,1.8-8,7-8c4.4,0,8,4.2,8,8h-3v7h2c-1,0.9-2.6,2.6-4,3c-0.3-1.2-1.7-2-3-2c-1.6,0-3,1.5-3,3c0,1.5,1.4,3,3,3
	c1.3,0,2.7-1.8,3-3c2.8-0.7,5-2.6,6.4-5l0,0C19.8,14.2,20,13.3,20,12.4L20,12.4z M4,10v5l-1.1,0.1C2.3,15.1,1,13.7,1,12
	c0-1.7,1.4-2,2-2H4L4,10z M16,10h1c0.6,0,2-0.1,2,2c0,2.3-1.1,3-2,3h-1V10L16,10z M10,22c-1.1,0-2-0.9-2-2c0-1.1,0.9-2,2-2
	c1.1,0,2,0.9,2,2C12,21.1,11.1,22,10,22L10,22z"/>
</svg>
