<?xml version="1.0" encoding="utf-8"?>
<svg xmlns="http://www.w3.org/2000/svg"
	xmlns:xlink="http://www.w3.org/1999/xlink"
	width="32px" height="26px" viewBox="0 0 32 26">
<path fillRule="evenodd" d="M 24 26C 24 26 24 23 24 23 24 23 8 23 8 23 8 23 8 26 8 26 8 26 0 26 0 26 0 26 0 9.14 0 9.14-0 8.89 0.14 8.64 0.37 8.52 0.37 8.52 15.64 0.09 15.64 0.09 15.73 0.04 15.88 0 16 0 16.14 0 16.24 0.02 16.36 0.09 16.36 0.09 31.63 8.52 31.63 8.52 31.86 8.64 32 8.89 32 9.14 32 9.14 32 26 32 26 32 26 24 26 24 26ZM 8 21C 8 21 24 21 24 21 24 21 24 19 24 19 24 19 8 19 8 19 8 19 8 21 8 21ZM 8 17C 8 17 24 17 24 17 24 17 24 15 24 15 24 15 8 15 8 15 8 15 8 17 8 17ZM 30 10C 30 10 16 2 16 2 16 2 2 10 2 10 2 10 2 24 2 24 2 24 6 24 6 24 6 24 6 13 6 13 6 13 26 13 26 13 26 13 26 24 26 24 26 24 30 24 30 24 30 24 30 10 30 10ZM 19 9C 19 9 23 9 23 9 23 9 23 11 23 11 23 11 19 11 19 11 19 11 19 9 19 9ZM 9 9C 9 9 13 9 13 9 13 9 13 11 13 11 13 11 9 11 9 11 9 11 9 9 9 9Z" fill="rgb(255,255,255)"/></svg>