<?xml version="1.0" encoding="utf-8"?>
<svg xmlns="http://www.w3.org/2000/svg"
	xmlns:xlink="http://www.w3.org/1999/xlink"
	width="31px" height="30px" viewBox="0 0 31 30">
<path fillRule="evenodd" d="M 17 30C 17 30 17 8 17 8 17 8 31 8 31 8 31 8 31 30 31 30 31 30 17 30 17 30ZM 29 10C 29 10 19 10 19 10 19 10 19 28 19 28 19 28 29 28 29 28 29 28 29 10 29 10ZM 23 14C 23 14 21 14 21 14 21 14 21 12 21 12 21 12 23 12 23 12 23 12 23 14 23 14ZM 23 18C 23 18 21 18 21 18 21 18 21 16 21 16 21 16 23 16 23 16 23 16 23 18 23 18ZM 23 22C 23 22 21 22 21 22 21 22 21 20 21 20 21 20 23 20 23 20 23 20 23 22 23 22ZM 23 26C 23 26 21 26 21 26 21 26 21 24 21 24 21 24 23 24 23 24 23 24 23 26 23 26ZM 27 14C 27 14 25 14 25 14 25 14 25 12 25 12 25 12 27 12 27 12 27 12 27 14 27 14ZM 27 18C 27 18 25 18 25 18 25 18 25 16 25 16 25 16 27 16 27 16 27 16 27 18 27 18ZM 27 22C 27 22 25 22 25 22 25 22 25 20 25 20 25 20 27 20 27 20 27 20 27 22 27 22ZM 27 26C 27 26 25 26 25 26 25 26 25 24 25 24 25 24 27 24 27 24 27 24 27 26 27 26ZM-0 0C-0 0 14 0 14 0 14 0 14 30 14 30 14 30-0 30-0 30-0 30-0 0-0 0ZM 2 28C 2 28 12 28 12 28 12 28 12 2 12 2 12 2 2 2 2 2 2 2 2 28 2 28ZM 8 24C 8 24 10 24 10 24 10 24 10 26 10 26 10 26 8 26 8 26 8 26 8 24 8 24ZM 8 20C 8 20 10 20 10 20 10 20 10 22 10 22 10 22 8 22 8 22 8 22 8 20 8 20ZM 8 16C 8 16 10 16 10 16 10 16 10 18 10 18 10 18 8 18 8 18 8 18 8 16 8 16ZM 8 12C 8 12 10 12 10 12 10 12 10 14 10 14 10 14 8 14 8 14 8 14 8 12 8 12ZM 8 8C 8 8 10 8 10 8 10 8 10 10 10 10 10 10 8 10 8 10 8 10 8 8 8 8ZM 8 4C 8 4 10 4 10 4 10 4 10 6 10 6 10 6 8 6 8 6 8 6 8 4 8 4ZM 4 24C 4 24 6 24 6 24 6 24 6 26 6 26 6 26 4 26 4 26 4 26 4 24 4 24ZM 4 20C 4 20 6 20 6 20 6 20 6 22 6 22 6 22 4 22 4 22 4 22 4 20 4 20ZM 4 16C 4 16 6 16 6 16 6 16 6 18 6 18 6 18 4 18 4 18 4 18 4 16 4 16ZM 4 12C 4 12 6 12 6 12 6 12 6 14 6 14 6 14 4 14 4 14 4 14 4 12 4 12ZM 4 8C 4 8 6 8 6 8 6 8 6 10 6 10 6 10 4 10 4 10 4 10 4 8 4 8ZM 4 4C 4 4 6 4 6 4 6 4 6 6 6 6 6 6 4 6 4 6 4 6 4 4 4 4Z" fill="rgb(255,255,255)"/></svg>