<?xml version="1.0" encoding="utf-8"?>
<!-- Generator: Adobe Illustrator 19.0.0, SVG Export Plug-In . SVG Version: 6.00 Build 0)  -->
<svg version="1.1" id="Layer_1" xmlns="http://www.w3.org/2000/svg" xmlns:xlink="http://www.w3.org/1999/xlink" x="0px" y="0px"
	 width="60px" height="36px" viewBox="0 0 60 36" enable-background="new 0 0 60 36" xml:space="preserve">
<path fill="#BBBBBB" d="M56,36H0V4h56V36L56,36L56,36z M2,6v28h52V6H2L2,6L2,6z M60,32h-2V2H4V0h56V32L60,32L60,32z M52,32h-7v-2h7
	V32L52,32L52,32z M11,32H4v-2h7V32L11,32L11,32z M28,29c-5,0-9-4-9-9c0-5,4-9,9-9c5,0,9,4,9,9C37,25,33,29,28,29L28,29L28,29z
	 M28,13c-3.9,0-7,3.1-7,7c0,3.9,3.1,7,7,7c3.9,0,7-3.1,7-7C35,16.1,31.9,13,28,13L28,13L28,13z M52,10h-7V8h7V10L52,10L52,10z
	 M11,10H4V8h7V10L11,10L11,10z"/>
</svg>
