<?xml version="1.0" encoding="utf-8"?>
<!-- Generator: Adobe Illustrator 19.0.0, SVG Export Plug-In . SVG Version: 6.00 Build 0)  -->
<svg version="1.1" id="Layer_1" xmlns="http://www.w3.org/2000/svg" xmlns:xlink="http://www.w3.org/1999/xlink" x="0px" y="0px"
	 width="42px" height="46px" viewBox="0 0 42 46" enable-background="new 0 0 42 46" xml:space="preserve">
<path fill-rule="evenodd" clip-rule="evenodd" fill="#BBBBBB" d="M0,46V0h42v46H0L0,46z M40,2H2v42h38V2L40,2z M12,12H9v-2h3V12
	L12,12z M12,20H9v-2h3V20L12,20z M12,28H9v-2h3V28L12,28z M12,36H9v-2h3V36L12,36z M33,12H15v-2h18V12L33,12z M33,20H15v-2h18V20
	L33,20z M33,28H15v-2h18V28L33,28z M33,36H15v-2h18V36L33,36z"/>
</svg>
