<?xml version="1.0" encoding="utf-8"?>
<svg xmlns="http://www.w3.org/2000/svg"
	xmlns:xlink="http://www.w3.org/1999/xlink"
	width="32px" height="25px" viewBox="0 0 32 25">
<path fillRule="evenodd" d="M 32 25C 32 25 21 25 21 25 21 25 22 0 22 0 22 0 30 0 30 0 30 0 32 25 32 25 32 25 32 25 32 25ZM 24 2C 24 2 23 23 23 23 23 23 30 23 30 23 30 23 28 2 28 2 28 2 24 2 24 2 24 2 24 2 24 2ZM 18 25C 18 25-0 25-0 25-0 25-0 8.69-0 8.69-0 8.69 10 13 10 13 10 13 10 9 10 9 10 9 19 12 19 12 19 12 18 25 18 25 18 25 18 25 18 25ZM 2 12C 2 12 2 23 2 23 2 23 16 23 16 23 16 23 17 14 17 14 17 14 12 12 12 12 12 12 12 16 12 16 12 16 2 12 2 12 2 12 2 12 2 12ZM 14 20C 14 20 12 20 12 20 12 20 12 18 12 18 12 18 14 18 14 18 14 18 14 20 14 20 14 20 14 20 14 20ZM 10 20C 10 20 8 20 8 20 8 20 8 18 8 18 8 18 10 18 10 18 10 18 10 20 10 20 10 20 10 20 10 20ZM 6 20C 6 20 4 20 4 20 4 20 4 18 4 18 4 18 6 18 6 18 6 18 6 20 6 20 6 20 6 20 6 20Z" fill="rgb(255,255,255)"/></svg>