<?xml version="1.0" encoding="utf-8"?>
<!-- Generator: Adobe Illustrator 19.0.0, SVG Export Plug-In . SVG Version: 6.00 Build 0)  -->
<svg version="1.1" id="Layer_1" xmlns="http://www.w3.org/2000/svg" xmlns:xlink="http://www.w3.org/1999/xlink" x="0px" y="0px"
	 width="179px" height="34px" viewBox="0 0 179 34" enable-background="new 0 0 179 34" xml:space="preserve">
<path id="XMLID_48_" fill="#126FAA" d="M59.8,17.6c0,5.4-3.9,9-8.8,9h-6.8V8.7h6.3C56,8.7,59.8,12.3,59.8,17.6 M55.9,17.6
	c0-3.3-2.2-5.5-5.4-5.5c-0.8,0-1.7,0-2.6,0.1v11c1,0.1,2.1,0.1,3.1,0.1C53.7,23.3,55.9,21.1,55.9,17.6"/>
<rect id="XMLID_20_" x="62" y="14.1" fill="#126FAA" width="3.6" height="12.3"/>
<path id="XMLID_44_" fill="#126FAA" d="M80.5,13.8v12.5c0,4-2.4,6.8-7.2,6.8c-1.3,0-3-0.4-4.4-0.7l0.6-2.9c1.4,0.2,2.7,0.5,3.7,0.5
	c2.3,0,3.6-1.2,3.7-3.4c-1.5,0.2-2.5,0.2-3.7,0.2c-3.4,0-5.9-2.5-5.9-6.4c0-3.9,2.2-6.5,6.2-6.5H80.5z M70.8,20.3
	c0,1.8,1.2,3.3,3,3.3H77v-6.9h-2.9C71.7,16.7,70.8,18.3,70.8,20.3"/>
<rect id="XMLID_17_" x="83" y="14.1" fill="#126FAA" width="3.6" height="12.3"/>
<polygon id="XMLID_16_" fill="#55B6E7" points="101,16.8 101,20.2 93.3,20.2 93.3,26.4 89.6,26.4 89.6,9 102.1,9 102.1,12.4 
	93.3,12.4 93.3,16.8 "/>
<path id="XMLID_39_" fill="#55B6E7" d="M115.9,13.8v12.7h-3.6v-0.9c-1,0.8-2.2,1.3-3.7,1.3c-3.4,0-5.9-2.5-5.9-6.6
	c0.1-3.9,2.3-6.5,6.2-6.5H115.9z M106.2,20.3c0,2.1,1.2,3.5,3,3.5c1,0,2.1-0.3,3.1-1.2v-5.9h-2.9C107.1,16.7,106.2,18.3,106.2,20.3"
	/>
<path id="XMLID_13_" fill="#55B6E7" d="M133.6,22.9c2.1,0.8,3.8,1.1,5,1.1c1.2,0,2.1-0.3,2.1-1c0-1-1.7-1.1-3.3-1.4
	c-2.8-0.5-4.2-1.6-4.2-3.7c0-2.6,2.1-4.1,5.4-4.1c1.8,0,4,0.5,5.2,0.9l-0.8,2.7c-1.7-0.5-3.4-0.8-4.5-0.8c-1.1,0-1.8,0.4-1.8,1.1
	c0,1,1.3,1,3.1,1.4c2.8,0.6,4.3,1.4,4.3,3.7c0,2.9-2.3,4.1-5.6,4.1c-1.4,0-3.5-0.3-5.6-1.1L133.6,22.9z"/>
<path id="XMLID_12_" fill="#55B6E7" d="M155.7,26.4c-1.2,0.3-1.9,0.4-3.5,0.4c-3,0-4.7-1.8-4.7-5v-4.5h-2.5l6.1-7.6v4.4h3.9v3.2H151
	v4.2c0,1.4,0.5,2.2,1.9,2.2c0.7,0,1.4-0.1,2.4-0.2L155.7,26.4z"/>
<path id="XMLID_34_" fill="#55B6E7" d="M168.9,19.1c0,1.1-0.1,1.5-0.2,2.5H160c0.5,1.3,1.7,2.1,3.5,2.1c1,0,2.3-0.2,4.4-0.6l0.5,2.8
	c-1.9,0.6-3.5,1-5,1c-4.7,0-7.1-2.9-7.1-6.6c0-4,2.8-6.6,6.5-6.6C166.3,13.7,168.8,15.9,168.9,19.1 M159.9,19h5.8
	c-0.1-1.5-1.2-2.5-2.8-2.5C161.3,16.5,160.2,17.5,159.9,19"/>
<path id="XMLID_9_" fill="#55B6E7" d="M178.8,17.2c-1.5,0-3,0-4.4,0.2v9h-3.6V14.6c2.3-0.4,5.6-0.8,7.9-0.8V17.2z"/>
<rect id="XMLID_8_" x="62" y="9" fill="#126FAA" width="3.6" height="3.6"/>
<rect id="XMLID_7_" x="83" y="9" fill="#126FAA" width="3.6" height="3.6"/>
<path id="XMLID_28_" fill="#55B6E7" d="M125.2,13.8c-1,0-2.3,0.1-3.2,0.3V9h-3.6v17.5h7.2c3.3,0,5.9-2,5.9-6.3
	C131.6,16.3,129.5,13.8,125.2,13.8 M124.9,23.6h-2.9V17c0.9-0.2,2-0.3,2.7-0.3c2.6,0,3.5,1.5,3.5,3.5
	C128.2,22.4,127.2,23.6,124.9,23.6"/>
<path id="XMLID_4_" fill="#126FAA" d="M0.6,7.6l5.7,7.6l-5,3.8c1.1,1.5,0.9,1.1,3.8,5l5-3.8l3.8,5l-5,3.8l3.8,5l10.1-7.6L5.7,3.8
	L0.6,7.6z"/>
<rect id="XMLID_3_" x="1.3" y="25.2" transform="matrix(-0.8 0.6 -0.6 -0.8 24.9398 48.3786)" fill="#126FAA" width="6.3" height="6.3"/>
<path id="XMLID_2_" fill="#55B6E7" d="M20.1,12.6l-3.8-5l-5,3.8l17,22.7l5-3.8l-5.7-7.6l5-3.8c-1.1-1.5-0.9-1.1-3.8-5l-5,3.8
	L20.1,12.6z"/>
<rect id="XMLID_1_" x="22.7" y="1.3" transform="matrix(-0.6 -0.8 0.8 -0.6 37.7668 27.6992)" fill="#55B6E7" width="6.3" height="6.3"/>
</svg>
