<?xml version="1.0" encoding="utf-8"?>
<svg xmlns="http://www.w3.org/2000/svg"
	xmlns:xlink="http://www.w3.org/1999/xlink"
	width="20px" height="26px" viewBox="0 0 20 26">
<path fillRule="evenodd" d="M 9.98 22.75C 9.98 22.75 16.1 14.92 16.1 14.92 16.1 14.92 16.52 14.39 16.52 14.39 17.49 13.05 18 11.48 18 9.9 17.97 8.83 17.77 7.81 17.39 6.88 16.15 3.92 13.24 2 9.98 2 6.72 2 3.82 3.92 2.57 6.91 2.18 7.78 2 8.75 2 9.85 2 11.41 2.46 12.9 3.34 14.22 3.54 14.52 3.74 14.79 3.94 15 3.94 15 3.99 15.06 3.99 15.06 3.99 15.06 4.04 15.12 4.04 15.12 4.04 15.12 9.98 22.75 9.98 22.75M 10 5.01C 12.75 5.01 14.99 7.25 14.99 10 14.99 12.76 12.75 15 10 15 7.25 15 5.01 12.76 5.01 10 5.01 7.25 7.25 5.01 10 5.01M 9.98 26C 9.98 26 2.46 16.35 2.46 16.35 2.16 16.02 1.9 15.66 1.66 15.3 0.6 13.73-0 11.85-0 9.85-0 8.51 0.23 7.26 0.73 6.11 2.23 2.53 5.82 0 9.98 0 14.14 0 17.74 2.53 19.23 6.11 19.7 7.26 19.97 8.51 20 9.85 20 11.99 19.3 13.96 18.14 15.56 18.14 15.56 17.67 16.16 17.67 16.16 17.67 16.16 9.98 26 9.98 26 9.98 26 9.98 26 9.98 26ZM 10 7.01C 8.35 7.01 7.01 8.35 7.01 10 7.01 11.66 8.35 13 10 13 11.65 13 12.99 11.66 12.99 10 12.99 8.35 11.65 7.01 10 7.01 10 7.01 10 7.01 10 7.01Z" fill="rgb(83,183,231)"/></svg>