<?xml version="1.0" encoding="utf-8"?>
<!-- Generator: Adobe Illustrator 19.0.0, SVG Export Plug-In . SVG Version: 6.00 Build 0)  -->
<svg version="1.1" id="Layer_1" xmlns="http://www.w3.org/2000/svg" xmlns:xlink="http://www.w3.org/1999/xlink" x="0px" y="0px"
	 width="66px" height="66px" viewBox="0 0 66 66" enable-background="new 0 0 66 66" xml:space="preserve">
<path fill="#AAAAAA" d="M57,26v-2C57,10.6,46.4,0,33,0C19.6,0,9,10.6,9,24v2c-3.5,0.3-9,2.1-9,7v8.7C0,47.2,6.6,48,10,48
	c0.6,0,1-0.4,1-1V33c0-0.6-0.6-1.1-1.2-1.1C9.2,31.9,9,32.4,9,33v13c-2.1-0.2-7-0.5-7-4v-9c0-4.6,7.9-5,8-5c0.6,0,1-0.4,1-1
	l-0.1-2.7C10.9,12.1,20.8,2,33,2c12.2,0,22.1,10.1,22.1,22.3v2.9c0,0.6,0.3,0.8,0.9,0.8c0.1,0,8,0.4,8,5v9c0,3.5-4.9,3.8-7,4V33
	c0-0.6-0.2-1.1-0.8-1.1c-0.6,0-1.2,0.5-1.2,1.1l0.1,14.5c0,3.9-1,13-12.1,13.5v-2c0-1.6-1.2-3.9-4.2-3.9H27.2
	c-3.6,0-5.5,2.8-5.5,5.5s1.9,5.5,5.5,5.5h11.6c0.6,0,1.1-0.5,1.1-1.1c0-0.6-0.3-0.9-0.9-0.9H27c-2.2,0-3-1.9-3-3.5
	c0-1.6,0.8-3.5,3-3.5h12c1.6,0,2,1.5,2,2v3c0,0.6,0.4,1,1,1c5.6,0,9.5-1.7,12.2-5.2c2.3-3,2.7-7.1,2.8-9.8c3.5-0.3,9-1.1,9-6v-9
	C66,28.1,60.5,26.3,57,26L57,26z"/>
</svg>
