<?xml version="1.0" encoding="utf-8"?>
<!-- Generator: Adobe Illustrator 19.0.0, SVG Export Plug-In . SVG Version: 6.00 Build 0)  -->
<svg version="1.1" id="Layer_1" xmlns="http://www.w3.org/2000/svg" xmlns:xlink="http://www.w3.org/1999/xlink" x="0px" y="0px"
	 width="65px" height="52px" viewBox="0 0 65 52" enable-background="new 0 0 65 52" xml:space="preserve">
<path fill="#AAAAAA" d="M38,31l-8.3,4.7C29.5,35.7,29.2,36,29,36c-0.2,0-1,0-1,0V22c0,0,0.9-0.1,1,0l9,5c1.8,0.9,2,1.3,2,2
	C40,29.3,39.7,30.1,38,31L38,31z M30,25v8l7-4L30,25L30,25z M29,36C29,36,29,36,29,36C29.1,36,29.1,36,29,36L29,36z M64.1,52H0.9
	C0.4,52,0,51.6,0,51.1V0.9C0,0.4,0.4,0,0.9,0h63.3C64.6,0,65,0.4,65,0.9v50.3C65,51.6,64.6,52,64.1,52L64.1,52z M63,2H2v6h61V2L63,2
	z M63,10H2v40h61V10L63,10z M4,6V4h2v2H4L4,6z M8,6V4h2v2H8L8,6z M12,6V4h2v2H12L12,6z"/>
</svg>
