<?xml version="1.0" encoding="utf-8"?>
<svg xmlns="http://www.w3.org/2000/svg"
	xmlns:xlink="http://www.w3.org/1999/xlink"
	width="99px" height="60px" viewBox="0 0 99 60">
<path fillRule="evenodd" d="M 57.87 42.5C 57.87 42.5 57.99 42.62 57.99 42.62 57.99 42.62 56.62 43.99 56.62 43.99 56.62 43.99 56.5 43.87 56.5 43.87 56.5 43.87 56.38 43.99 56.38 43.99 56.38 43.99 55.01 42.62 55.01 42.62 55.01 42.62 55.13 42.5 55.13 42.5 55.13 42.5 44.01 31.38 44.01 31.38 44.01 31.38 45.38 30.01 45.38 30.01 45.38 30.01 56.5 41.13 56.5 41.13 56.5 41.13 97.62 0.01 97.62 0.01 97.62 0.01 98.99 1.38 98.99 1.38 98.99 1.38 57.87 42.5 57.87 42.5ZM 34 2C 34 2 34 58 34 58 34 58 90 58 90 58 90 58 90 17.35 90 17.35 90 17.35 92 15.35 92 15.35 92 15.35 92 60 92 60 92 60 32 60 32 60 32 60 32-0 32-0 32-0 90.14-0 90.14-0 90.14-0 88.14 2 88.14 2 88.14 2 34 2 34 2ZM-0 41C-0 41 22 41 22 41 22 41 22 43 22 43 22 43-0 43-0 43-0 43-0 41-0 41ZM 3 29C 3 29 22 29 22 29 22 29 22 31 22 31 22 31 3 31 3 31 3 31 3 29 3 29ZM-0 17C-0 17 22 17 22 17 22 17 22 19 22 19 22 19-0 19-0 19-0 19-0 17-0 17Z" fill="rgb(83,183,231)"/></svg>