<?xml version="1.0" encoding="utf-8"?>
<!-- Generator: Adobe Illustrator 19.0.0, SVG Export Plug-In . SVG Version: 6.00 Build 0)  -->
<svg version="1.1" id="Layer_1" xmlns="http://www.w3.org/2000/svg" xmlns:xlink="http://www.w3.org/1999/xlink" x="0px" y="0px"
	 width="86px" height="74px" viewBox="0 0 86 74" enable-background="new 0 0 86 74" xml:space="preserve">
<path fill="#54B8E8" d="M36.5,74C16.3,74,0,57.7,0,37.5C0,17.3,16.3,1,36.5,1C44.5,1,52,3.6,58,8v2.5C52.1,5.8,44.6,3,36.5,3
	C17.4,3,2,18.4,2,37.5C2,56.6,17.4,72,36.5,72C55.4,72,70.7,56.8,71,38h2C72.7,57.9,56.5,74,36.5,74L36.5,74L36.5,74z M16.5,62.5
	c-0.6-0.4-1.2-0.9-1.8-1.3C17.3,51.3,26.3,44,37,44c10.5,0,19.4,7.1,22.1,16.8c-0.5,0.4-1.1,0.9-1.7,1.3C55.2,52.9,46.9,46,37,46
	C26.9,46,18.5,53.1,16.5,62.5L16.5,62.5L16.5,62.5z M37,42c-6.6,0-12-5.4-12-12c0-6.6,5.4-12,12-12c6.6,0,12,5.4,12,12
	C49,36.6,43.6,42,37,42L37,42L37,42z M37,20c-5.5,0-10,4.5-10,10c0,5.5,4.5,10,10,10s10-4.5,10-10C47,24.5,42.5,20,37,20L37,20
	L37,20z M84,36H62c-1.5,0-2-0.4-2-2V12c0-1.6,0.5-2,2-2h3V8c0-5.9,2.2-8,8-8c5.8,0,8,2.1,8,8v2h3c1.5,0,2,0.4,2,2v22
	C86,35.6,85.5,36,84,36L84,36L84,36z M63,12c-0.8,0-1,0.2-1,1v20c0,0.8,0.2,1,1,1h20c0.8,0,1-0.2,1-1V13c0-0.8-0.2-1-1-1H63L63,12
	L63,12z M73,2c-4.1,0-6,2.1-6,6v2h12V8C79,3.9,76.9,2,73,2L73,2L73,2z M74,29h-2v-7h1h1V29L74,29L74,29z M73,22c-1.7,0-3-1.3-3-3
	c0-1.7,1.3-3,3-3c1.7,0,3,1.3,3,3C76,20.7,74.7,22,73,22L73,22L73,22z M73,18c-0.6,0-1,0.4-1,1c0,0.6,0.4,1,1,1c0.6,0,1-0.4,1-1
	C74,18.4,73.6,18,73,18L73,18L73,18z"/>
</svg>
