<?xml version="1.0" encoding="utf-8"?>
<svg xmlns="http://www.w3.org/2000/svg"
	xmlns:xlink="http://www.w3.org/1999/xlink"
	width="66px" height="90px" viewBox="0 0 66 90">
<path fillRule="evenodd" d="M 58 89C 58 89 52 89 52 89 52 89 45 89 45 89 45 89 39 89 39 89 39 89 33 89 33 89 33 89 27 89 27 89 27 89 20 89 20 89 20 89 15 89 15 89 15 89 8.14 89.04 8.14 89.04 8.14 89.04-0 89-0 89-0 89-0 0-0 0-0 0 8 4 8 4 8 4 14 1 14 1 14 1 21 4 21 4 21 4 27 1 27 1 27 1 33 4 33 4 33 4 39 1 39 1 39 1 46 4 46 4 46 4 52 1 52 1 52 1 58 4 58 4 58 4 66-0 66-0 66-0 66 89 66 89 66 89 58 89 58 89ZM 64 3C 64 3 58 6 58 6 58 6 52 3 52 3 52 3 46 6 46 6 46 6 39 3 39 3 39 3 33 6 33 6 33 6 27 3 27 3 27 3 21 6 21 6 21 6 14 3 14 3 14 3 8 6 8 6 8 6 2 3 2 3 2 3 2 87 2 87 2 87 64 87 64 87 64 87 64 3 64 3ZM 42 61C 42 61 12 61 12 61 12 61 12 59 12 59 12 59 42 59 42 59 42 59 42 61 42 61ZM 42 73C 42 73 12 73 12 73 12 73 12 71 12 71 12 71 42 71 42 71 42 71 42 73 42 73ZM 39.61 24.05C 39.17 24.29 38.61 24.23 38.3 23.81 37.8 23.09 36.31 21.96 33.95 21.72 33.95 21.72 33.95 31.02 33.95 31.02 36.87 32.27 39.98 33.77 39.98 37.34 39.98 40.32 37.43 42.71 33.95 43.07 33.95 43.07 33.95 46.11 33.95 46.11 33.95 46.58 33.51 47 33.01 47 32.51 47 32.08 46.58 32.08 46.11 32.08 46.11 32.08 43.07 32.08 43.07 29.09 42.83 27.04 41.46 26.17 40.2 25.86 39.79 25.98 39.25 26.42 38.95 26.85 38.65 27.41 38.77 27.72 39.19 28.22 39.91 29.65 41.04 32.08 41.28 32.08 41.28 32.08 32.16 32.08 32.16 29.15 30.9 26.04 29.41 26.04 25.72 26.04 22.68 28.6 20.29 32.08 19.94 32.08 19.94 32.08 16.89 32.08 16.89 32.08 16.42 32.51 16 33.01 16 33.51 16 33.95 16.42 34.01 16.89 34.01 16.89 34.01 19.94 34.01 19.94 36.93 20.23 38.98 21.6 39.86 22.8 40.1 23.21 40.04 23.75 39.61 24.05ZM 33.95 41.28C 36.37 40.92 38.11 39.31 38.11 37.28 38.11 35.14 36.56 34.12 33.95 32.93 33.95 32.93 33.95 41.28 33.95 41.28ZM 32.08 21.72C 29.71 22.02 27.91 23.63 27.91 25.66 27.91 27.92 29.47 29 32.08 30.19 32.08 30.19 32.08 21.72 32.08 21.72ZM 53 61C 53 61 49 61 49 61 49 61 49 59 49 59 49 59 53 59 53 59 53 59 53 61 53 61ZM 53 73C 53 73 49 73 49 73 49 73 49 71 49 71 49 71 53 71 53 71 53 71 53 73 53 73Z" fill="rgb(83,183,231)"/></svg>