<?xml version="1.0" encoding="utf-8"?>
<!-- Generator: Adobe Illustrator 19.0.0, SVG Export Plug-In . SVG Version: 6.00 Build 0)  -->
<svg version="1.1" id="Layer_1" xmlns="http://www.w3.org/2000/svg" xmlns:xlink="http://www.w3.org/1999/xlink" x="0px" y="0px"
	 width="89px" height="62px" viewBox="0 0 89 62" enable-background="new 0 0 89 62" xml:space="preserve">
<path fill-rule="evenodd" clip-rule="evenodd" fill="#54B8E8" d="M83,12c-3.3,0-6-2.7-6-6c0-3.3,2.7-6,6-6s6,2.7,6,6
	C89,9.3,86.3,12,83,12L83,12z M83,2c-2.2,0-4,1.8-4,4s1.8,4,4,4c2.2,0,4-1.8,4-4S85.2,2,83,2L83,2z M57,46c-3.3,0-6-2.7-6-6
	c0-3.3,2.7-6,6-6s6,2.7,6,6C63,43.3,60.3,46,57,46L57,46z M57,36c-2.2,0-4,1.8-4,4c0,2.2,1.8,4,4,4s4-1.8,4-4C61,37.8,59.2,36,57,36
	L57,36z M56,0h2v31h-2V0L56,0z M31,27c-3.3,0-6-2.7-6-6s2.7-6,6-6c3.3,0,6,2.7,6,6S34.3,27,31,27L31,27z M31,17c-2.2,0-4,1.8-4,4
	c0,2.2,1.8,4,4,4c2.2,0,4-1.8,4-4C35,18.8,33.2,17,31,17L31,17z M30,0h2v12h-2V0L30,0z M6,62c-3.3,0-6-2.7-6-6c0-3.3,2.7-6,6-6
	c3.3,0,6,2.7,6,6C12,59.3,9.3,62,6,62L6,62z M6,52c-2.2,0-4,1.8-4,4c0,2.2,1.8,4,4,4c2.2,0,4-1.8,4-4C10,53.8,8.2,52,6,52L6,52z
	 M5,0h2v47H5V0L5,0z M32,62h-2V30h2V62L32,62z M58,62h-2V49h2V62L58,62z M84,62h-2V15h2V62L84,62z"/>
</svg>
