<?xml version="1.0" encoding="utf-8"?>
<!-- Generator: Adobe Illustrator 19.0.0, SVG Export Plug-In . SVG Version: 6.00 Build 0)  -->
<svg version="1.1" id="Layer_1" xmlns="http://www.w3.org/2000/svg" xmlns:xlink="http://www.w3.org/1999/xlink" x="0px" y="0px"
	 width="96px" height="73px" viewBox="0 0 96 73" enable-background="new 0 0 96 73" xml:space="preserve">
<path fill="#54B8E8" d="M60.6,47.3c-0.1,0.4-0.4,0.8-0.8,0.8l-3.2,0.8c-1.8,0.4-3.2,1.5-3.8,2.9c-0.6,1.4-0.4,3.1,0.6,4.7l1.7,2.8
	c0.2,0.4,0.2,0.8,0,1.2c-1.9,2.6-4.1,4.9-6.7,6.7c-0.3,0.2-0.8,0.3-1.2,0l-2.8-1.7c-1-0.6-2.1-1-3.1-1c-2.2,0-3.9,1.6-4.5,4.1
	l-0.8,3.2c-0.1,0.4-0.4,0.7-0.9,0.8c-1.6,0.2-3.2,0.4-4.8,0.4c-1.6,0-3.2-0.1-4.8-0.4c-0.4-0.1-0.8-0.4-0.8-0.8l-0.8-3.2
	c-0.6-2.5-2.4-4.1-4.5-4.1c-1,0-2.1,0.3-3.1,1l-2.8,1.7c-0.4,0.2-0.8,0.2-1.2,0C10,65.3,7.7,63,5.8,60.4c-0.2-0.3-0.3-0.8-0.1-1.2
	l1.7-2.8c1-1.6,1.2-3.3,0.6-4.7c-0.6-1.4-1.9-2.5-3.8-2.9l-3.2-0.8c-0.4-0.1-0.7-0.4-0.8-0.8C0.1,45.7,0,44.1,0,42.5
	c0-1.6,0.1-3.2,0.4-4.8c0.1-0.4,0.4-0.8,0.8-0.9l3.2-0.8c1.8-0.4,3.2-1.5,3.8-2.9c0.6-1.4,0.4-3.1-0.6-4.7l-1.7-2.8
	c-0.2-0.4-0.2-0.8,0.1-1.2c1.9-2.6,4.1-4.9,6.7-6.7c0.3-0.2,0.8-0.3,1.2-0.1l2.8,1.7c1,0.6,2.1,0.9,3.1,0.9c2.2,0,3.9-1.6,4.5-4.1
	l0.8-3.2c0.1-0.4,0.4-0.7,0.8-0.8c3.1-0.5,6.4-0.5,9.5,0c0.4,0.1,0.8,0.4,0.9,0.8l0.8,3.2c0.6,2.5,2.4,4.1,4.5,4.1
	c1,0,2.1-0.3,3.1-0.9l2.8-1.7c0.4-0.2,0.8-0.2,1.2,0.1c2.6,1.9,4.9,4.1,6.7,6.7c0.2,0.3,0.3,0.8,0,1.2l-1.7,2.8
	c-1,1.6-1.2,3.3-0.6,4.7c0.6,1.4,1.9,2.5,3.8,2.9l3.2,0.8c0.4,0.1,0.7,0.4,0.8,0.9c0.2,1.6,0.4,3.2,0.4,4.8
	C61,44.1,60.9,45.7,60.6,47.3L60.6,47.3z M58.7,38.7l-2.5-0.6c-2.5-0.6-4.4-2.1-5.2-4.1c-0.8-2.1-0.6-4.4,0.8-6.6l1.3-2.2
	c-1.5-2-3.3-3.8-5.3-5.3l-2.2,1.3c-1.3,0.8-2.8,1.3-4.2,1.3c-3.2,0-5.7-2.2-6.6-5.7l-0.6-2.5c-2.5-0.3-5-0.3-7.5,0l-0.6,2.5
	c-0.8,3.5-3.4,5.7-6.6,5.7c-1.4,0-2.8-0.4-4.2-1.3l-2.2-1.3c-2,1.5-3.8,3.3-5.3,5.3l1.3,2.2c1.4,2.2,1.6,4.6,0.8,6.6
	c-0.9,2.1-2.7,3.5-5.2,4.1l-2.5,0.6c-0.2,1.2-0.2,2.5-0.2,3.8c0,1.3,0.1,2.5,0.2,3.8l2.5,0.6c2.5,0.6,4.4,2.1,5.2,4.1
	c0.8,2.1,0.6,4.4-0.8,6.6l-1.3,2.2c1.5,2,3.3,3.8,5.3,5.3l2.2-1.3c1.3-0.8,2.8-1.3,4.2-1.3c3.2,0,5.7,2.2,6.6,5.7l0.6,2.5
	c2.5,0.3,5,0.3,7.5,0l0.6-2.5c0.8-3.5,3.4-5.7,6.6-5.7c1.4,0,2.8,0.4,4.2,1.3l2.2,1.3c2-1.5,3.8-3.3,5.3-5.3l-1.3-2.2
	C50.4,55.4,50.1,53,51,51c0.8-2.1,2.7-3.5,5.2-4.1l2.5-0.6c0.2-1.2,0.2-2.5,0.2-3.8C58.9,41.2,58.8,40,58.7,38.7L58.7,38.7z
	 M30.5,54C24.1,54,19,48.9,19,42.5C19,36.2,24.1,31,30.5,31C36.9,31,42,36.2,42,42.5C42,48.9,36.9,54,30.5,54L30.5,54z M30.5,33
	c-5.2,0-9.5,4.3-9.5,9.5c0,5.2,4.3,9.5,9.5,9.5c5.2,0,9.5-4.3,9.5-9.5C40,37.3,35.7,33,30.5,33L30.5,33z M95.8,19.7
	c0,0.2-0.2,0.4-0.4,0.5l-1.8,0.4c-1,0.2-1.8,0.8-2.1,1.6c-0.3,0.8-0.2,1.7,0.3,2.6l0.9,1.6c0.1,0.2,0.1,0.5,0,0.6
	c-1,1.4-2.3,2.7-3.8,3.8c-0.2,0.1-0.4,0.1-0.6,0l-1.5-0.9c-0.6-0.3-1.2-0.5-1.7-0.5c-1.2,0-2.2,0.9-2.5,2.3l-0.4,1.8
	c-0.1,0.2-0.2,0.4-0.5,0.4C80.8,33.9,79.9,34,79,34c-0.9,0-1.8-0.1-2.7-0.2c-0.2,0-0.4-0.2-0.5-0.4l-0.4-1.8
	c-0.3-1.4-1.3-2.3-2.5-2.3c-0.6,0-1.1,0.2-1.7,0.5l-1.6,0.9c-0.2,0.1-0.5,0.1-0.6,0c-1.4-1-2.7-2.3-3.8-3.8c-0.1-0.2-0.1-0.4,0-0.6
	l0.9-1.6c0.6-0.9,0.7-1.8,0.3-2.6c-0.3-0.8-1.1-1.4-2.1-1.6l-1.8-0.4c-0.2-0.1-0.4-0.2-0.4-0.5C62.1,18.8,62,17.9,62,17
	c0-0.9,0.1-1.8,0.2-2.7c0-0.2,0.2-0.4,0.4-0.5l1.8-0.4c1-0.2,1.8-0.8,2.1-1.6c0.3-0.8,0.2-1.7-0.3-2.6l-0.9-1.5
	c-0.1-0.2-0.1-0.5,0-0.6c1-1.4,2.3-2.7,3.8-3.8c0.2-0.1,0.4-0.1,0.6,0l1.6,1c0.6,0.3,1.2,0.5,1.7,0.5c1.2,0,2.2-0.9,2.5-2.3l0.4-1.8
	c0.1-0.2,0.2-0.4,0.5-0.4c1.7-0.3,3.6-0.3,5.3,0c0.2,0,0.4,0.2,0.5,0.4l0.4,1.8c0.3,1.4,1.3,2.3,2.5,2.3c0.6,0,1.1-0.2,1.7-0.5
	l1.5-1c0.2-0.1,0.5-0.1,0.6,0c1.4,1,2.7,2.3,3.8,3.8c0.1,0.2,0.1,0.4,0,0.6l-0.9,1.5c-0.6,0.9-0.7,1.8-0.3,2.6
	c0.3,0.8,1.1,1.4,2.1,1.6l1.8,0.4c0.2,0.1,0.4,0.2,0.4,0.5c0.1,0.9,0.2,1.8,0.2,2.7C96,17.9,95.9,18.8,95.8,19.7L95.8,19.7z
	 M93.9,15l-1.3-0.3c-1.3-0.3-2.3-1.1-2.8-2.2c-0.4-1.1-0.3-2.3,0.4-3.5l0.7-1.2c-0.8-1.1-1.8-2-2.8-2.8L87,5.8
	c-0.7,0.4-1.5,0.7-2.2,0.7c-1.7,0-3-1.2-3.5-3L81,2.1c-1.3-0.2-2.7-0.2-4,0l-0.3,1.3c-0.4,1.8-1.8,3-3.5,3c-0.7,0-1.5-0.2-2.2-0.7
	l-1.2-0.7c-1.1,0.8-2,1.8-2.8,2.8L67.8,9c0.7,1.2,0.9,2.4,0.4,3.5c-0.4,1.1-1.4,1.9-2.8,2.2L64.1,15C64,15.7,64,16.3,64,17
	c0,0.7,0,1.3,0.1,2l1.3,0.3c1.3,0.3,2.3,1.1,2.8,2.2c0.4,1.1,0.3,2.3-0.4,3.5l-0.7,1.2c0.8,1.1,1.7,2,2.8,2.8l1.2-0.7
	c0.7-0.4,1.5-0.7,2.2-0.7c1.7,0,3,1.2,3.5,3l0.3,1.3c1.3,0.2,2.7,0.2,4,0l0.3-1.3c0.4-1.8,1.8-3,3.5-3c0.7,0,1.5,0.2,2.2,0.7
	l1.2,0.7c1.1-0.8,2-1.7,2.8-2.8L90.2,25c-0.7-1.2-0.9-2.4-0.4-3.5c0.4-1.1,1.4-1.9,2.8-2.2l1.3-0.3c0.1-0.7,0.1-1.3,0.1-2
	C94,16.3,94,15.7,93.9,15L93.9,15z M79,24c-3.9,0-7-3.1-7-7c0-3.9,3.1-7,7-7c3.9,0,7,3.1,7,7C86,20.9,82.9,24,79,24L79,24z M79,12
	c-2.8,0-5,2.2-5,5c0,2.8,2.2,5,5,5c2.8,0,5-2.2,5-5C84,14.2,81.8,12,79,12L79,12z"/>
</svg>
