<?xml version="1.0" encoding="utf-8"?>
<svg xmlns="http://www.w3.org/2000/svg"
	xmlns:xlink="http://www.w3.org/1999/xlink"
	width="74px" height="64px" viewBox="0 0 74 64">
<path fillRule="evenodd" d="M-0 64C-0 64-0 46-0 46-0 46 74 46 74 46 74 46 74 64 74 64 74 64-0 64-0 64ZM 72 48C 72 48 2 48 2 48 2 48 2 62 2 62 2 62 72 62 72 62 72 62 72 48 72 48ZM 7.5 54C 8.33 54 9 54.67 9 55.5 9 56.33 8.33 57 7.5 57 6.67 57 6 56.33 6 55.5 6 54.67 6.67 54 7.5 54ZM 66 56C 66 56 59 56 59 56 59 56 59 54 59 54 59 54 66 54 66 54 66 54 66 56 66 56ZM-0 23C-0 23 74 23 74 23 74 23 74 41 74 41 74 41-0 41-0 41-0 41-0 23-0 23ZM 2 39C 2 39 72 39 72 39 72 39 72 25 72 25 72 25 2 25 2 25 2 25 2 39 2 39ZM 59 31C 59 31 66 31 66 31 66 31 66 33 66 33 66 33 59 33 59 33 59 33 59 31 59 31ZM 7.5 34C 6.67 34 6 33.33 6 32.5 6 31.67 6.67 31 7.5 31 8.33 31 9 31.67 9 32.5 9 33.33 8.33 34 7.5 34ZM-0-0C-0-0 74-0 74-0 74-0 74 18 74 18 74 18-0 18-0 18-0 18-0-0-0-0ZM 2 16C 2 16 72 16 72 16 72 16 72 2 72 2 72 2 2 2 2 2 2 2 2 16 2 16ZM 59 8C 59 8 66 8 66 8 66 8 66 10 66 10 66 10 59 10 59 10 59 10 59 8 59 8ZM 7.5 11C 6.67 11 6 10.33 6 9.5 6 8.67 6.67 8 7.5 8 8.33 8 9 8.67 9 9.5 9 10.33 8.33 11 7.5 11Z" fill="rgb(83,183,231)"/></svg>