<?xml version="1.0" encoding="utf-8"?>
<!-- Generator: Adobe Illustrator 19.0.0, SVG Export Plug-In . SVG Version: 6.00 Build 0)  -->
<svg version="1.1" id="Layer_1" xmlns="http://www.w3.org/2000/svg" xmlns:xlink="http://www.w3.org/1999/xlink" x="0px" y="0px"
	 width="102px" height="68px" viewBox="0 0 102 68" enable-background="new 0 0 102 68" xml:space="preserve">
<path fill="#54B8E8" d="M83.4,68H19.5C8.7,68,0,59.6,0,48.6C0,39.1,6.2,30.5,15,28c-0.1-1.1,0.1-0.9,0.1-2.1
	C15.1,18.5,22.2,13,30,13c3.1,0,5.1,0.4,7.4,2C41.6,6.1,50.7,0,61.2,0C75.6,0,87,10.5,87,25c0,0.4,0,1.6,0,2c8.4,2,15,10.7,15,20.7
	C102,59.2,93.7,68,83.4,68L83.4,68L83.4,68z M30,15c-7.5,0-13.1,6.3-13.1,12c0,1-0.1,2,0.1,3C8.9,31.7,2,39.2,2,48.1
	C2,58.2,10,66,20,66h62.9c9.5,0,17.2-8.2,17.2-18.8c0-8.9-8-18.2-14.4-18.2c-0.2,0-0.4,0-0.6,0c0-0.4,0-1.6,0-2
	C85,10.6,73.7,2,60.4,2c-9.7,0-18,7.7-21.9,15.9C36.4,16.4,32.9,15,30,15L30,15L30,15z M52,58c-0.2,0-0.3,0-0.5-0.1
	c-4.3-1.8-8.1-4.4-10.8-8.4C39,47.1,38,44.3,38,41.2c0-3.7,0-7.5,0-11.2c0-0.8,0.3-1.4,1-1.8c3.1-2,6.5-3.4,10.2-4
	c0.7-0.1,1.3-0.2,2-0.2c0.6,0,1.2,0,1.8,0c0.5,0.1,1.1,0.1,1.7,0.2c1.9,0.3,3.8,0.8,5.6,1.4c1.8,0.7,3.4,1.6,5,2.6
	c0.5,0.4,0.8,0.9,0.8,1.5c0,3.8,0,7.7,0,11.5c0,3.8-1.4,7.2-3.8,10c-2.2,2.6-4.9,4.5-7.9,5.9c-0.5,0.3-1.1,0.6-1.7,0.7
	C52.4,58,52.2,58,52,58L52,58L52,58z M51.3,26c-0.5,0-1.1,0.1-1.7,0.2c-3.2,0.5-6.1,1.7-8.8,3.5c-0.6,0.4-0.8,0.9-0.8,1.6
	c0,3.3,0,6.6,0,9.9c0,2.7,0.8,5.2,2.3,7.4c2.4,3.5,5.6,5.8,9.3,7.4C51.7,56,51.8,56,52,56c0.2,0,0.4,0,0.5-0.1
	c0.5-0.2,1-0.4,1.5-0.6c2.6-1.3,4.9-2.9,6.8-5.2c2.1-2.5,3.2-5.5,3.3-8.8c0-3.3,0-6.7,0-10.1c0-0.6-0.3-1-0.7-1.4
	c-1.4-0.9-2.8-1.7-4.3-2.3c-1.5-0.6-3.1-1.1-4.8-1.3c-0.5-0.1-1-0.1-1.4-0.2C52.3,26,51.8,26,51.3,26L51.3,26L51.3,26z M50.7,45
	l-0.6-0.4L49.8,45L46,41.7l1.2-1.7l3,2.6l7.2-7.6l1.7,1.2L50.7,45L50.7,45L50.7,45z"/>
</svg>
