<?xml version="1.0" encoding="utf-8"?>
<svg xmlns="http://www.w3.org/2000/svg"
	xmlns:xlink="http://www.w3.org/1999/xlink"
	width="71px" height="86px" viewBox="0 0 71 86">
<path fillRule="evenodd" d="M 17.01 72C 17.01 72 17.01-0 17.01-0 17.01-0 52.32-0 52.32-0 52.32-0 52.65 0.32 52.65 0.32 52.65 0.32 61.7 9.12 61.7 9.12 61.7 9.12 71 18.16 71 18.16 71 18.16 71 72 71 72 71 72 17.01 72 17.01 72ZM 53 4C 53 4 53 18 53 18 53 18 68 18 68 18 68 18 53 4 53 4ZM 69 20C 69 20 52 20 52 20 51.34 20 51 19.64 51 19 51 19 51 2 51 2 51 2 19 2 19 2 19 2 19 70 19 70 19 70 69 70 69 70 69 70 69 20 69 20ZM 42 25C 42 25 44 25 44 25 44 25 44 25.65 44 25.65 44 25.65 50.99 32.64 50.99 32.64 50.99 32.64 49.64 33.99 49.64 33.99 49.64 33.99 44 28.35 44 28.35 44 28.35 44 51 44 51 44 51 42 51 42 51 42 51 42 28.35 42 28.35 42 28.35 36.36 33.99 36.36 33.99 36.36 33.99 35.01 32.64 35.01 32.64 35.01 32.64 42 25.65 42 25.65 42 25.65 42 25 42 25ZM 11 77C 11 77 61 77 61 77 61 77 61 74 61 74 61 74 63 74 63 74 63 74 63 79 63 79 63 79 9.01 79 9.01 79 9.01 79 9.01 7 9.01 7 9.01 7 15 7 15 7 15 7 15 9 15 9 15 9 11 9 11 9 11 9 11 77 11 77ZM 2 84C 2 84 52 84 52 84 52 84 52 81 52 81 52 81 54 81 54 81 54 81 54 86 54 86 54 86 0.01 86 0.01 86 0.01 86 0.01 14 0.01 14 0.01 14 6 14 6 14 6 14 6 16 6 16 6 16 2 16 2 16 2 16 2 84 2 84Z" fill="rgb(83,183,231)"/></svg>