<?xml version="1.0" encoding="utf-8"?>
<!-- Generator: Adobe Illustrator 19.0.0, SVG Export Plug-In . SVG Version: 6.00 Build 0)  -->
<svg version="1.1" id="Layer_1" xmlns="http://www.w3.org/2000/svg" xmlns:xlink="http://www.w3.org/1999/xlink" x="0px" y="0px"
	 width="28px" height="28px" viewBox="0 0 28 28" enable-background="new 0 0 28 28" xml:space="preserve">
<path fill-rule="evenodd" clip-rule="evenodd" fill="#FFFFFF" d="M14,28C6.3,28,0,21.7,0,14C0,6.3,6.3,0,14,0c7.7,0,14,6.3,14,14
	C28,21.7,21.7,28,14,28L14,28z M14,1C6.8,1,1,6.8,1,14c0,7.2,5.8,13,13,13c7.2,0,13-5.8,13-13C27,6.8,21.2,1,14,1L14,1z M20.3,15
	l-8.6,4.9C11.5,19.9,11.2,20,11,20c-0.6,0-1-0.5-1-1.2V9.2c0-1,0.8-1.5,1.7-1l8.6,4.8c0.4,0.2,0.7,0.6,0.7,1
	C21,14.4,20.8,14.7,20.3,15L20.3,15z M11,9v10l9-5L11,9L11,9z"/>
</svg>
